# xmcd
#
# Track frame offsets:
#  150
#  12279
#  25222
#  39895
#  53881
#  66748
#  78169
#  91724
#  103599
#  116418
#  128704
#  143643
#  155922
#  169800
#  182690
#
# Disc length: 2605 seconds
#
# Revision: 1
# Processed by: cddbd v1.5.1PL0 Copyright (c) Steve Scherf et al.
# Submitted via: Collectorz.com Music Collector 6.9
#
DISCID=be0a2b0f
DTITLE=Various Artist - I Left My Heart In Texas
DYEAR=2004
DGENRE=Country
TTITLE0=Bob Willis and His Texas Cowboys - Time Changes Everything
TTITLE1=Don Williams - Where Do We Go From Here
TTITLE2=Townes Van Zandt - To Live Is To Fly
TTITLE3=Ernest Tubb - Letters Have No Arms
TTITLE4=Billie Jo Spears - Dallas
TTITLE5=Kenny Rogers and The First Edition - Just Remember You're My Sunshine
TTITLE6=Tex Ritter - There's A New Moon Over My Shoulder
TTITLE7=Jeannie C  Riley - There Never Was A Time
TTITLE8=Rita Remington - Sentimental Journey
TTITLE9=Buck Owens - House Down The Block
TTITLE10=Willie Nelson - Face of A Fighter
TTITLE11=Moon Mulligan - I Left My Heart In Texas
TTITLE12=Roger Miller - My Elusive Dreams
TTITLE13=Freddy Fender - Silver Wings
TTITLE14=Gene Autry - Lonely River
EXTD=
EXTT0=
EXTT1=
EXTT2=
EXTT3=
EXTT4=
EXTT5=
EXTT6=
EXTT7=
EXTT8=
EXTT9=
EXTT10=
EXTT11=
EXTT12=
EXTT13=
EXTT14=
PLAYORDER=
